<svg width="123" height="123" viewBox="0 0 123 123" fill="none" xmlns="http://www.w3.org/2000/svg">
<path fill-rule="evenodd" clip-rule="evenodd" d="M12 0C5.37256 0 0 5.37259 0 12V111C0 117.627 5.37256 123 12 123H111C117.627 123 123 117.627 123 111V20.6995C123 18.3526 121.969 16.124 120.181 14.604L105.241 1.90448C103.794 0.675049 101.969 0 100.071 0H97V32C97 33.6569 95.6569 35 94 35H23C21.8954 35 21 34.1046 21 33V0H12ZM24 44C22.3431 44 21 45.3431 21 47V104C21 105.657 22.3431 107 24 107H99C100.657 107 102 105.657 102 104V47C102 45.3431 100.657 44 99 44H24Z" fill="white"/>
<path d="M75 0H93V28C93 29.6569 91.6569 31 90 31H78C76.3431 31 75 29.6569 75 28V0Z" fill="white"/>
</svg>
