<svg width="146" height="146" viewBox="0 0 146 146" fill="none" xmlns="http://www.w3.org/2000/svg">
<path fill-rule="evenodd" clip-rule="evenodd" d="M52 10C52 4.47714 56.4772 0 62 0H84C89.5228 0 94 4.47714 94 10V14.8628C95.778 15.5263 97.5171 16.2697 99.2128 17.0887L102.698 13.603C106.604 9.69778 112.935 9.69778 116.841 13.603L132.397 29.1594C136.302 33.0646 136.302 39.3963 132.397 43.3015L128.549 47.1497C129.266 48.7318 129.917 50.3498 130.501 52H136C141.523 52 146 56.4771 146 62V84C146 89.5228 141.523 94 136 94H130.137C129.562 95.5419 128.926 97.0546 128.234 98.535L132.397 102.698C136.302 106.604 136.302 112.935 132.397 116.841L116.841 132.397C112.935 136.302 106.604 136.302 102.698 132.397L98.535 128.234C97.0546 128.926 95.5419 129.562 94 130.137V136C94 141.523 89.5228 146 84 146H62C56.4772 146 52 141.523 52 136V130.501C50.3497 129.917 48.7318 129.266 47.1497 128.549L43.3015 132.397C39.3963 136.302 33.0646 136.302 29.1594 132.397L13.603 116.841C9.69781 112.935 9.69781 106.604 13.603 102.698L17.0887 99.2128C16.2697 97.5171 15.5262 95.778 14.8627 94H10C4.47717 94 0 89.5228 0 84V62C0 56.4771 4.47717 52 10 52H14.4995C15.1672 50.1109 15.9246 48.2642 16.7665 46.465L13.603 43.3015C9.69781 39.3963 9.69781 33.0646 13.603 29.1594L29.1594 13.603C33.0646 9.69778 39.3963 9.69778 43.3015 13.603L46.465 16.7665C48.2642 15.9246 50.1109 15.1672 52 14.4995V10ZM72.5 113C94.8676 113 113 94.8676 113 72.5C113 50.1325 94.8676 32 72.5 32C50.1324 32 32 50.1325 32 72.5C32 94.8676 50.1324 113 72.5 113Z" fill="white"/>
</svg>
